<svg width="80" height="81" viewBox="0 0 80 81" fill="none" xmlns="http://www.w3.org/2000/svg">
<path d="M66.4595 0.0717773H13.5405C6.06228 0.0717773 0 6.13405 0 13.6122V66.5313C0 74.0095 6.06228 80.0718 13.5405 80.0718H66.4595C73.9377 80.0718 80 74.0095 80 66.5313V13.6122C80 6.13405 73.9377 0.0717773 66.4595 0.0717773Z" fill="#02B0F4"/>
<path d="M60.081 27.4575C59.9794 27.0368 59.8247 26.9111 59.5732 26.7853C59.0268 26.5145 58.0306 26.7515 58.0306 26.7515C58.0306 26.7515 22.7625 35.7898 20.6831 36.9649C20.2333 37.2163 20.0786 37.3759 19.9915 37.5645C19.5611 38.4978 20.5718 39.025 20.5718 39.025L29.0927 42.7196C29.0927 42.7196 29.4167 42.797 29.5424 42.7341C31.6605 41.6605 50.8638 31.9259 51.947 31.6406C52.1163 31.6067 52.2324 31.6744 52.1888 31.7857C51.6327 33.2122 34.5717 45.7178 34.5717 45.7178C34.5717 45.7178 34.504 45.7855 34.4605 45.8726L34.4411 45.8581L32.797 54.4998C32.797 54.4998 32.2021 57.1402 35.123 54.7174C37.1879 53.0103 39.1561 51.6031 40.1427 50.9261C42.9668 53.3005 46.0037 55.9167 47.2949 57.2562C47.9429 57.9284 48.5232 58.0832 49.0117 58.1122C50.3512 58.1896 50.859 56.7582 50.859 56.7582C50.859 56.7582 59.4378 32.3273 59.9601 28.9954C60.0133 28.6713 60.0568 28.4634 60.081 28.2361C60.1149 27.9218 60.1149 27.6074 60.081 27.4527V27.4575Z" fill="white"/>
</svg>
