<svg width="80" height="81" viewBox="0 0 80 81" fill="none" xmlns="http://www.w3.org/2000/svg">
<path d="M66.4595 0.0717773H13.5405C6.06228 0.0717773 0 6.13405 0 13.6122V66.5313C0 74.0095 6.06228 80.0718 13.5405 80.0718H66.4595C73.9377 80.0718 80 74.0095 80 66.5313V13.6122C80 6.13405 73.9377 0.0717773 66.4595 0.0717773Z" fill="#5765F2"/>
<path d="M59.9166 38.3091C58.843 34.4501 57.3197 31.3889 56.014 29.1983C55.0081 28.4874 53.7266 27.7088 52.1646 27.0318C49.8434 26.0259 47.7301 25.5955 46.144 25.4069C45.907 25.7503 45.6749 26.0936 45.4379 26.437C46.5067 26.5966 47.7882 26.8867 49.1809 27.4138C51.507 28.294 53.2382 29.4981 54.3843 30.4508C51.5843 29.0822 45.8925 26.7707 38.4452 27.0366C32.6083 27.2397 28.0819 28.942 25.4319 30.18C26.7521 29.3869 28.285 28.5648 30.0405 27.7959C31.6073 27.1092 33.0823 26.5773 34.4315 26.1662C34.3444 25.7068 34.3734 25.8615 34.2864 25.4021C32.9855 25.5037 31.3849 25.7406 29.6101 26.2774C27.139 27.027 25.2094 28.0957 23.8651 28.9903C22.4723 31.6162 20.8958 35.2334 19.8513 39.726C18.9711 43.5367 18.7197 46.917 18.7148 49.596C19.2806 50.4471 20.8039 52.5072 23.6474 53.7694C26.4861 55.0316 29.0346 54.7898 30.0453 54.635C30.7659 53.6485 31.4912 52.6668 32.2118 51.6803C31.2881 51.3563 30.2146 50.8969 29.0685 50.244C27.7725 49.509 26.7279 48.7207 25.9251 48.0195C27.0664 48.653 28.6864 49.4558 30.7127 50.1473C35.8871 51.9076 40.2684 51.719 42.5074 51.6078C44.287 51.5159 45.7426 51.4433 47.6673 50.8969C50.5736 50.0699 52.7063 48.6917 54.0119 47.6955C53.422 48.4064 52.4064 49.4509 50.8686 50.2972C49.6548 50.9646 48.5329 51.2789 47.7253 51.4337C48.412 52.5024 49.0987 53.5663 49.7854 54.635C51.2023 54.6447 53.8765 54.4755 56.7781 53.0102C58.9542 51.9125 60.4195 50.51 61.2803 49.538C61.3673 46.7574 61.1836 42.821 59.9262 38.3139L59.9166 38.3091ZM33.7206 45.5581C31.4235 45.7854 29.5085 43.8704 29.7358 41.5733C29.9051 39.8711 31.2785 38.4977 32.9807 38.3284C35.2777 38.1011 37.1927 40.0161 36.9655 42.3132C36.7962 44.0154 35.4228 45.3888 33.7206 45.5581ZM47.0579 45.8869C44.7609 46.1142 42.8459 44.1992 43.0732 41.9021C43.2424 40.1999 44.6158 38.8265 46.3181 38.6573C48.6151 38.43 50.5301 40.345 50.3028 42.642C50.1336 44.3443 48.7602 45.7176 47.0579 45.8869Z" fill="white"/>
</svg>
