<svg width="80" height="81" viewBox="0 0 80 81" fill="none" xmlns="http://www.w3.org/2000/svg">
<path d="M66.4595 0.0717773H13.5405C6.06228 0.0717773 0 6.13405 0 13.6122V66.5313C0 74.0095 6.06228 80.0718 13.5405 80.0718H66.4595C73.9377 80.0718 80 74.0095 80 66.5313V13.6122C80 6.13405 73.9377 0.0717773 66.4595 0.0717773Z" fill="#0078FF"/>
<path d="M59.1283 48.7596C56.4879 45.9935 53.7073 44.4315 51.8455 43.5755C53.5912 42.5745 56.6185 40.5289 59.2057 36.8923C61.8171 33.2122 62.7456 29.6385 63.1131 27.6558H54.776C54.2924 29.2903 53.3204 31.776 51.3232 34.2664C48.3008 38.0288 44.6255 39.6681 42.8217 40.3258L42.7879 27.6461L35.0069 27.6655L35.0698 50.0072C32.9855 49.2867 30.7949 48.1019 28.904 46.1821C26.4909 43.7254 25.4899 40.94 24.605 38.4785C23.3718 35.0547 22.7963 31.4423 22.8834 27.7477L15.1073 27.5591C14.9912 32.2209 15.7263 36.7811 17.2834 41.114C18.3231 44.0059 19.7449 47.9617 23.3525 51.6369C28.2512 56.6276 34.3154 58.2379 38.5371 58.7118L42.8701 59.1954L42.841 48.0922C44.287 48.2277 46.9274 48.6919 49.592 50.486C53.9636 53.4359 55.2789 57.8752 55.5981 59.1229H64.912C64.3269 56.9322 62.8761 52.6815 59.1283 48.7596Z" fill="white"/>
</svg>
