<svg width="80" height="81" viewBox="0 0 80 81" fill="none" xmlns="http://www.w3.org/2000/svg">
<path d="M66.4176 0.0717773H13.5823C6.08103 0.0717773 0 6.1528 0 13.6541V66.4895C0 73.9908 6.08103 80.0718 13.5823 80.0718H66.4176C73.919 80.0718 80 73.9908 80 66.4895V13.6541C80 6.1528 73.919 0.0717773 66.4176 0.0717773Z" fill="white"/>
<path d="M52.6268 28.3328C50.5894 28.3328 48.9353 29.9869 48.9353 32.0242V52.2086H53.7813C54.9406 52.2086 55.8768 51.2675 55.8768 50.113V31.5877C55.8768 29.7929 54.4216 28.3376 52.6268 28.3376V28.3328Z" fill="#32AA51"/>
<path d="M27.3782 28.3328C29.4156 28.3328 31.0697 29.9869 31.0697 32.0242V52.2086H26.2237C25.0644 52.2086 24.1282 51.2675 24.1282 50.113V31.5877C24.1282 29.7929 25.5834 28.3376 27.3782 28.3376V28.3328Z" fill="#4386F8"/>
<path opacity="0.96" d="M54.5817 34.2895L45.6173 41.915L40.4366 46.3245L34.8145 41.9927L25.5688 34.8716C23.9534 33.6298 23.6527 31.3111 24.8945 29.6958C25.9908 28.2745 28.033 28.0077 29.4543 29.104L40.2183 37.3941L50.4148 28.7159C51.7827 27.5517 53.8346 27.7167 54.9988 29.0846C56.3183 30.6369 56.1291 32.9653 54.5817 34.2847V34.2895Z" fill="#EE4131"/>
<path d="M48.9353 39.0871C48.9499 36.0359 48.9692 32.9847 48.9838 29.9287C49.3622 29.6183 49.6678 29.3563 49.8763 29.172C50.0558 29.0167 50.2983 28.7985 50.6525 28.5365C50.8659 28.3765 51.0211 28.2795 51.22 28.1921C51.4335 28.1 51.6032 28.0611 51.7536 28.0272C51.7536 28.0272 52.3406 27.8914 53.0342 27.9545C53.2865 27.9787 53.5096 28.0175 53.7085 28.066C53.7861 28.0854 54.2664 28.2163 54.6787 28.5074C54.7854 28.585 54.8873 28.6675 54.9891 28.7645C55.1104 28.8809 55.2171 28.9973 55.3045 29.1186C55.6828 29.6231 55.8817 30.244 55.8817 30.8746V34.0762C53.5678 35.7449 51.254 37.4136 48.9402 39.0822L48.9353 39.0871Z" fill="#FFB900"/>
<path d="M31.0649 39.1163L31.0163 30.2587C30.8417 30.1229 30.7156 30.0064 30.6283 29.924C30.5943 29.89 30.5118 29.8124 30.3518 29.6524C30.2111 29.5117 30.1868 29.4874 30.1335 29.4438C30.0462 29.371 29.9783 29.3225 29.8522 29.2351C29.7163 29.1381 29.6969 29.1333 29.5999 29.0654C29.5174 29.0072 29.4446 28.9538 29.3864 28.915C29.3864 28.915 29.0711 28.7064 28.7849 28.5851C28.7025 28.5512 28.6297 28.5269 28.6297 28.5269C28.4842 28.4784 28.3629 28.4493 28.2514 28.4251C28.2514 28.4251 27.6644 28.2941 26.9707 28.3523C26.7185 28.3717 26.4953 28.4154 26.2965 28.4639C26.2188 28.4833 25.7386 28.6094 25.3263 28.8908C25.2196 28.9635 25.1177 29.046 25.0158 29.1381C24.8946 29.2497 24.7878 29.3661 24.7005 29.4825C24.3221 29.9725 24.1233 30.5691 24.1233 31.1803V34.2752C26.4371 35.8905 28.751 37.5058 31.0649 39.1212V39.1163Z" fill="#C5201A"/>
</svg>
