<svg width="16" height="18" viewBox="0 0 16 18" fill="none" xmlns="http://www.w3.org/2000/svg">
<path fill-rule="evenodd" clip-rule="evenodd" d="M15.3828 5.64975H13.5976V4.56763C13.5976 1.96428 11.1903 0 8.00252 0C4.81477 0 2.40739 1.96036 2.40739 4.56763V5.65367H0.622248C0.280522 5.65367 0 5.86931 0 6.132V17.5217C0 17.7844 0.280522 18 0.622248 18H15.3777C15.7194 18 15.9999 17.7844 15.9999 17.5217V6.12808C16.005 5.86539 15.7245 5.64975 15.3828 5.64975ZM3.65191 4.5676C3.65191 2.50922 5.52375 0.95662 8.00255 0.95662C10.4813 0.95662 12.3532 2.50922 12.3532 4.5676V5.65364H3.65191V4.5676ZM14.7605 17.0433H1.24447V6.60637H14.7605V17.0433Z" fill="#1C1E26"/>
<path fill-rule="evenodd" clip-rule="evenodd" d="M7.5 11.7734V13.5192C7.5 13.7833 7.72541 14 8 14C8.27459 14 8.5 13.7833 8.5 13.5192V11.7734C8.79508 11.6079 9 11.3123 9 10.9616C9 10.4296 8.55328 10 8 10C7.44672 10 7 10.4296 7 10.9616C7 11.3123 7.20902 11.6079 7.5 11.7734Z" fill="#1C1E26"/>
</svg>
