<svg width="261" height="65" viewBox="0 0 261 65" fill="none" xmlns="http://www.w3.org/2000/svg">
<path d="M30.0813 12H100L95.935 21.7537L64.5528 32.1576H30.0813V12Z" fill="black"/>
<path d="M30.0813 32.1576H64.5528L60.6504 42.0739L64.5528 51.9902H30.0813L34.6341 42.0739L30.0813 32.1576Z" fill="black"/>
<rect x="24.8781" y="51.9902" width="58.2114" height="10.0788" fill="black"/>
<path d="M0 13.5028L28.6179 13.5028L28.6179 32.9307L0 13.5028Z" fill="black"/>
<path d="M107.597 22.52V32.78L116.777 21.98L120.233 24.644L112.961 33.068L123.185 47H117.389L109.901 36.632L107.597 39.332V47H102.917V22.52H107.597ZM133.474 47.432C130.714 47.432 128.554 46.604 126.994 44.948C125.458 43.268 124.69 41.024 124.69 38.216C124.69 35.432 125.494 33.212 127.102 31.556C128.734 29.9 130.954 29.072 133.762 29.072C136.666 29.072 138.91 29.936 140.494 31.664C142.102 33.368 142.906 35.612 142.906 38.396C142.906 41.18 142.042 43.388 140.314 45.02C138.586 46.628 136.306 47.432 133.474 47.432ZM138.082 38.396C138.082 36.74 137.71 35.444 136.966 34.508C136.246 33.548 135.214 33.068 133.87 33.068C132.502 33.068 131.434 33.488 130.666 34.328C129.898 35.168 129.514 36.452 129.514 38.18C129.514 39.908 129.838 41.216 130.486 42.104C131.158 42.992 132.178 43.436 133.546 43.436C134.89 43.436 135.982 43.04 136.822 42.248C137.662 41.432 138.082 40.148 138.082 38.396ZM151.324 47L144.628 30.188L149.452 29.54L153.484 40.124L157.3 29.54H162.232L155.356 47H151.324ZM169.54 21.584V35.912L177.028 29.036L179.656 32.348L174.76 36.632L181.168 47H175.804L171.412 39.62L169.54 41.276V47H164.896V21.98L169.54 21.584ZM187.12 41.78C187.12 42.284 187.324 42.74 187.732 43.148C188.14 43.532 188.68 43.724 189.352 43.724C190 43.724 190.648 43.58 191.296 43.292C191.968 43.004 192.604 42.572 193.204 41.996V39.332H189.676C188.86 39.332 188.224 39.584 187.768 40.088C187.336 40.592 187.12 41.156 187.12 41.78ZM189.424 47.432C187.288 47.432 185.704 46.916 184.672 45.884C183.64 44.828 183.124 43.46 183.124 41.78C183.124 39.98 183.736 38.6 184.96 37.64C186.184 36.68 187.78 36.2 189.748 36.2H193.168C193.144 35.312 192.88 34.628 192.376 34.148C191.896 33.644 191.224 33.392 190.36 33.392C189.544 33.392 188.656 33.512 187.696 33.752C186.736 33.968 185.932 34.232 185.284 34.544L184.024 30.656C184.696 30.2 185.716 29.828 187.084 29.54C188.476 29.228 189.544 29.072 190.288 29.072C192.376 29.072 194.164 29.684 195.652 30.908C197.14 32.108 197.884 33.644 197.884 35.516V47H195.472L194.32 45.524C193.672 46.028 192.904 46.472 192.016 46.856C191.152 47.24 190.288 47.432 189.424 47.432ZM210.327 38.972H200.931L200.535 35.3H209.967L210.327 38.972ZM222.521 28.928L219.317 37.46H225.797L222.521 28.928ZM224.609 22.52L234.113 46.352L229.433 47L227.237 41.24H217.949L215.789 47H211.109L220.649 22.52H224.609ZM246.15 29.54L247.086 33.284C246.294 33.284 245.37 33.512 244.314 33.968C243.282 34.424 242.262 35.096 241.254 35.984V47H236.574V29.54H239.022L240.57 32.096C241.29 31.472 242.166 30.896 243.198 30.368C244.23 29.816 245.214 29.54 246.15 29.54ZM260.276 46.64C259.892 46.952 259.34 47.204 258.62 47.396C257.924 47.612 257.3 47.72 256.748 47.72C254.588 47.72 252.884 47.18 251.636 46.1C250.412 44.996 249.8 43.436 249.8 41.42V33.176H247.46V29.576H249.8V25.436L254.444 24.608V29.576H257.612L259.052 33.176H254.444V40.592C254.444 41.504 254.66 42.26 255.092 42.86C255.524 43.436 256.16 43.724 257 43.724C257.312 43.724 257.624 43.688 257.936 43.616C258.248 43.544 258.572 43.424 258.908 43.256L260.276 46.64Z" fill="black"/>
</svg>
